# xmcd
#
# Track frame offsets:
#	150
#	18240
#	47674
#	66243
#	83200
#	102551
#	115202
#	129259
#	146844
#	168701
#	185891
#	208124
#	224020
#	242053
#	264521
#
# Disc length: 3754 seconds
#
# Revision: 0
# Processed by: cddbd v1.5.2PL0 Copyright (c) Steve Scherf et al.
# Submitted via: dBpowerAMP V4.0
#
DISCID=eb0ea80f
DTITLE=Various Artist - The No.1 R&B Album [CD4]
DYEAR=1900
DGENRE=
TTITLE0=Shaun Escoffery-Days Like This
TTITLE1=Only Child Feat Amp Fiddler-You Bring Me Vibes
TTITLE2=Beverley Knight-Flavour Of The Old School
TTITLE3=Allure Feat. Elephant man-Uh Oh
TTITLE4=Miri Ben-Ari Feat. E40, Lil Flip and Czar-Nok-Sick Wit Da Flip
TTITLE5=Mavado-Weh Dem A Do
TTITLE6=Elephant Man-Elephant Man
TTITLE7=TQ-Listen
TTITLE8=So Solid Crew-21 Seconds
TTITLE9=Hil St Soul-Just A Matter Of Time
TTITLE10=Anthony David-Something About You
TTITLE11=T.O.K.-Footprints
TTITLE12=Zab-Fly Away
TTITLE13=Bost and Bim Feat. Brisa Roche and Lone Ranger
TTITLE14=Jade Feat. Zab-Phantasy
EXTD=
EXTT0=
EXTT1=
EXTT2=
EXTT3=
EXTT4=
EXTT5=
EXTT6=
EXTT7=
EXTT8=
EXTT9=
EXTT10=
EXTT11=
EXTT12=
EXTT13=
EXTT14=
PLAYORDER=
